<svg width="73" height="73" viewBox="0 0 73 73" fill="none" xmlns="http://www.w3.org/2000/svg">
    <path d="M20.0892 33.4854L24.7733 38.0926C25.1401 38.4533 25.6185 38.6444 26.1098 38.6444C26.3307 38.6444 26.5541 38.6057 26.7714 38.5267C27.4721 38.2717 27.9516 37.6521 28.0228 36.9099L28.6496 30.37C28.6534 30.3285 28.6752 30.2906 28.709 30.2659C33.0132 27.1208 35.5828 22.0648 35.5828 16.7412C35.5828 12.2255 33.812 7.9922 30.5963 4.82112C27.3813 1.65061 23.1295 -0.0608989 18.6038 0.00197801C14.2415 0.0627163 10.1269 1.8083 7.01788 4.91736C3.90883 8.02642 2.16324 12.1411 2.1025 16.5033C2.03963 21.0218 3.75113 25.2808 6.92164 28.4958C10.0927 31.7113 14.3262 33.4822 18.8417 33.4822C19.2201 33.4822 19.603 33.4693 19.9794 33.4441C20.0204 33.4415 20.0595 33.4562 20.0892 33.4854ZM18.8419 31.3432C14.903 31.3432 11.2105 29.7985 8.44438 26.9937C5.67893 24.1895 4.18614 20.4743 4.24103 16.5326C4.29379 12.7304 5.81723 9.14223 8.53007 6.42926C11.243 3.71628 14.8312 2.19312 18.6334 2.14008C22.5723 2.08704 26.2903 3.57798 29.0945 6.34357C31.8993 9.10958 33.444 12.8021 33.444 16.7409C33.444 21.3846 31.2021 25.7949 27.4469 28.539C26.9204 28.9239 26.5826 29.5168 26.5204 30.1658L25.9383 36.2389L21.5885 31.9607C21.1601 31.5394 20.5838 31.3049 19.9879 31.3049C19.9375 31.3049 19.8867 31.3066 19.8359 31.31C19.5073 31.3319 19.1727 31.3432 18.8419 31.3432Z" fill="black"/>
    <path d="M70.7398 55.0426L65.4744 25.5628C65.0616 23.2553 63.0611 21.5806 60.7176 21.5806H57.3787C56.8209 20.6189 56.0585 19.791 55.1505 19.1564L56.4272 15.6502C56.7697 14.7091 56.2822 13.6644 55.3405 13.3215L53.5162 12.6574L55.525 7.13801C55.8678 6.19671 55.3834 5.15717 54.4417 4.81441L50.5622 3.40246C49.6206 3.05985 48.5813 3.54433 48.2387 4.48591L46.2298 10.0051L44.4048 9.34084C43.4646 8.99866 42.4212 9.48499 42.0773 10.4261L34.0301 32.5346C33.6879 33.476 34.1748 34.5206 35.1157 34.8632L35.3605 34.9523L34.4247 37.5231C34.2529 37.9955 34.2752 38.5063 34.4875 38.9619C34.6999 39.4174 35.077 39.763 35.5492 39.9348L42.4594 42.4499C42.6696 42.5263 42.8872 42.5644 43.1042 42.5644C43.3751 42.5644 43.6453 42.5051 43.8982 42.3872C44.3537 42.1747 44.6992 41.7976 44.8711 41.3254L45.8073 38.7533L46.0511 38.842C46.2542 38.9161 46.4645 38.953 46.6743 38.953C47.3991 38.953 48.1064 38.5088 48.3796 37.7572L50.1431 32.9146C53.2301 33.1895 56.0701 31.5796 57.4853 28.9714C57.7417 29.1132 57.9158 29.386 57.9158 29.6992V37.9302C57.9158 38.5207 58.3944 38.9995 58.9851 38.9995C59.5758 38.9995 60.0544 38.5207 60.0544 37.9302V29.699C60.0544 28.4668 59.2998 27.4079 58.2286 26.9589C58.3385 26.4459 58.3978 25.9146 58.3978 25.3692C58.3978 24.8024 58.3332 24.2508 58.2147 23.7193H60.7174C62.0237 23.7193 63.139 24.6529 63.3691 25.9391L68.6345 55.4185C69.0535 57.7657 68.4162 60.1604 66.8853 61.9888C65.3545 63.8172 63.109 64.8661 60.7247 64.8661C59.6742 64.8661 34.2067 64.8658 33.1571 64.8658V56.2121C33.5968 56.2121 51.1292 56.2117 55.1569 56.2117C57.8574 56.2117 60.0546 54.0147 60.0546 51.3141V42.9206C60.0546 42.33 59.5759 41.8512 58.9852 41.8512C58.3945 41.8512 57.9159 42.33 57.9159 42.9206V51.3141C57.9159 52.8354 56.6782 54.073 55.1569 54.073H53.1745V50.2669C53.1745 49.2841 52.375 48.4847 51.3922 48.4847H28.2952C27.3124 48.4847 26.5129 49.2841 26.5129 50.2669V54.43C26.5129 55.4128 27.3124 56.2123 28.2952 56.2123H31.0185V64.8659H21.4404C20.4576 64.8659 19.6582 65.6653 19.6582 66.6481V71.2178C19.6582 72.2006 20.4576 73 21.4404 73H29.5925C30.1832 73 30.6618 72.5212 30.6618 71.9307C30.6618 71.3401 30.1832 70.8613 29.5925 70.8613H21.7969V67.0043C25.3359 67.0043 54.7197 67.0046 57.8905 67.0046V70.8613H34.5827C33.992 70.8613 33.5134 71.3401 33.5134 71.9307C33.5134 72.5212 33.992 73 34.5827 73H58.2471C59.2299 73 60.0293 72.2006 60.0293 71.2178V67.0046H60.7248C63.7438 67.0046 66.5869 65.6768 68.5253 63.3616C70.4633 61.0467 71.2705 58.0145 70.7398 55.0426ZM50.1368 5.5236L53.4039 6.71256L51.5063 11.9258L48.2394 10.7365L50.1368 5.5236ZM42.9495 40.3522L36.5223 38.0129L37.3703 35.6833L43.7977 38.0219L42.9495 40.3522ZM46.4806 36.7221C44.6087 36.041 37.4229 33.4266 36.1498 32.9635L43.9766 11.4608C44.9337 11.8093 54.3073 15.2213 54.3073 15.2213L53.2275 18.1864C52.4708 17.9322 51.6621 17.7923 50.8208 17.7923C46.6428 17.7923 43.2438 21.1914 43.2438 25.3693C43.2438 28.5686 45.238 31.3093 48.0478 32.4185L46.4806 36.7221ZM50.8209 30.8077C47.8222 30.8077 45.3826 28.368 45.3826 25.3693C45.3826 22.3706 47.8221 19.931 50.8209 19.931C53.8198 19.931 56.2594 22.3706 56.2594 25.3693C56.2594 28.368 53.8196 30.8077 50.8209 30.8077ZM28.6516 50.6231H51.0358V54.0727C50.913 54.0727 32.1707 54.0732 28.6516 54.0732V50.6231Z" fill="black"/>
    <path d="M50.8208 22.1307C49.0351 22.1307 47.5823 23.5834 47.5823 25.3692C47.5823 27.155 49.035 28.6077 50.8208 28.6077C52.6066 28.6077 54.0595 27.155 54.0595 25.3692C54.0595 23.5834 52.6066 22.1307 50.8208 22.1307ZM50.8208 26.4692C50.2143 26.4692 49.721 25.9759 49.721 25.3693C49.721 24.7628 50.2143 24.2695 50.8208 24.2695C51.4273 24.2695 51.9208 24.7628 51.9208 25.3693C51.9208 25.9759 51.4273 26.4692 50.8208 26.4692Z" fill="black"/>
    <path d="M25.4891 15.7031C27.3305 15.7031 28.8286 14.205 28.8286 12.3636C28.8286 10.5222 27.3305 9.02417 25.4891 9.02417C23.6477 9.02417 22.1497 10.5222 22.1497 12.3636C22.1497 14.205 23.6477 15.7031 25.4891 15.7031ZM25.4891 11.1628C26.1513 11.1628 26.6899 11.7015 26.6899 12.3636C26.6899 13.0258 26.1513 13.5644 25.4891 13.5644C24.827 13.5644 24.2883 13.0258 24.2883 12.3636C24.2883 11.7015 24.827 11.1628 25.4891 11.1628Z" fill="black"/>
    <path d="M11.18 13.252C9.33864 13.252 7.84058 14.7501 7.84058 16.5915C7.84058 18.4329 9.33864 19.931 11.18 19.931C13.0214 19.931 14.5196 18.4329 14.5196 16.5915C14.5196 14.7501 13.0214 13.252 11.18 13.252ZM11.18 17.7923C10.5179 17.7923 9.97925 17.2536 9.97925 16.5915C9.97925 15.9294 10.5179 15.3907 11.18 15.3907C11.8423 15.3907 12.381 15.9294 12.381 16.5915C12.381 17.2536 11.8423 17.7923 11.18 17.7923Z" fill="black"/>
    <path d="M27.6408 20.2654L26.0118 21.8942C25.5941 22.3118 25.5941 22.9887 26.0117 23.4064C26.2206 23.6152 26.4942 23.7196 26.7679 23.7196C27.0415 23.7196 27.3153 23.6152 27.524 23.4064L29.153 21.7775C29.5707 21.3599 29.5707 20.683 29.1531 20.2654C28.7355 19.8477 28.0582 19.8477 27.6408 20.2654Z" fill="black"/>
    <path d="M17.0272 7.25882C16.6097 6.84106 15.9326 6.84121 15.515 7.25882L13.8862 8.88763C13.4686 9.30524 13.4686 9.98235 13.8863 10.3998C14.0951 10.6087 14.3688 10.7131 14.6424 10.7131C14.916 10.7131 15.1898 10.6087 15.3987 10.3998L17.0275 8.771C17.4449 8.35339 17.4449 7.67643 17.0272 7.25882Z" fill="black"/>
    <path d="M20.4123 16.1782L18.7835 14.5494C18.3659 14.1318 17.6888 14.1318 17.2713 14.5494C16.8536 14.967 16.8536 15.644 17.2712 16.0616L18.9 17.6904C19.1089 17.8993 19.3825 18.0036 19.6562 18.0036C19.9299 18.0036 20.2036 17.8993 20.4123 17.6904C20.83 17.2729 20.83 16.5958 20.4123 16.1782Z" fill="black"/>
    <path d="M17.4396 23.0781L15.8107 24.7069C15.3931 25.1245 15.3931 25.8016 15.8109 26.2191C16.0196 26.428 16.2934 26.5324 16.567 26.5324C16.8406 26.5324 17.1143 26.428 17.3232 26.2191L18.952 24.5903C19.3697 24.1727 19.3696 23.4956 18.9519 23.0781C18.5343 22.6604 17.8572 22.6605 17.4396 23.0781Z" fill="black"/>
</svg>
